# xmcd CD database file
#
# Track frame offsets:
#	150
#	26052
#	42654
#	63777
#	83561
#	99689
#	123194
#	155685
#	171542
#	191752
#	212603
#	245498
#	263214
#	292191
#	325267
#
# Disc length: 4678 seconds
#
# Revision: 0
# Processed by: cddbd v1.5.1PL0 Copyright (c) Steve Scherf et al.
# Submitted via: CDex 1.51
#
DISCID=e012440f
DTITLE=2004 Universal Music Ltd. - Dreamlike coffee language(梦幻咖啡)01
DYEAR=2004
DGENRE=Jazz
TTITLE0=Fireworks By The River 河边烟火
TTITLE1=Dancing Heartily 心在跳舞
TTITLE2=Angles With Broken Wings 折翼天使
TTITLE3=The Air Full Of Aroma 香草的天空
TTITLE4=The Old Street 老街
TTITLE5=Listen Affntively 倾听
TTITLE6=In The Centre Of Dance Hall 在舞池中央
TTITLE7=Love A Appreciation 爱的推销员
TTITLE8=Waiting For Love 此情可待
TTITLE9=Pursue Happiness 寻找欢乐
TTITLE10=Blue Is Melancholy 蓝色忧郁
TTITLE11=Soft Words 轻声细语
TTITLE12=Campfire 篝火
TTITLE13=Revolving Restaurant 旋转餐厅
TTITLE14=The Seine Band 塞纳河畔
EXTD=YEAR: 2004
EXTT0=
EXTT1=
EXTT2=
EXTT3=
EXTT4=
EXTT5=
EXTT6=
EXTT7=
EXTT8=
EXTT9=
EXTT10=
EXTT11=
EXTT12=
EXTT13=
EXTT14=
PLAYORDER=
